# xmcd
#
# Track frame offsets:
#	150
#	20062
#	39956
#	60391
#	90175
#	109591
#	130882
#	151405
#	181646
#	206636
#	232153
#	237953
#	262508
#	287821
#	309069
#
# Disc length: 4697 seconds
#
# Revision: 0
# Processed by: cddbd v1.5.1PL2 Copyright (c) Steve Scherf et al.
# Submitted via: EasyCDDAExtractor 8.1.2.3
#
DISCID=b312570f
DTITLE=Sniper - Trait pour trait
DYEAR=2006
DGENRE=Rap
TTITLE0=S.N.I
TTITLE1=Dans mon monde
TTITLE2=Trait pour trait
TTITLE3=Eldorado feat Faada Freddy Daa
TTITLE4=Zamalia
TTITLE5=Génération Tanguy
TTITLE6=Donne tout
TTITLE7=La France (itinéraire d'une po
TTITLE8=Hommes de loi
TTITLE9=Il était une fois
TTITLE10=Radio
TTITLE11=Retour aux sources
TTITLE12=Elle
TTITLE13=Brûle avec Joey Starr
TTITLE14=Fallait que je te dise
EXTD=
EXTT0=
EXTT1=
EXTT2=
EXTT3=
EXTT4=
EXTT5=
EXTT6=
EXTT7=
EXTT8=
EXTT9=
EXTT10=
EXTT11=
EXTT12=
EXTT13=
EXTT14=
PLAYORDER=
